<?xml version="1.0" encoding="UTF-8"?>
<svg id="Capa_2" data-name="Capa 2" xmlns="http://www.w3.org/2000/svg" viewBox="0 0 55.8 81.7">
  <defs>
    <style>
      .cls-1 {
        fill: #fff;
      }
    </style>
  </defs>
  <g id="Layer_1" data-name="Layer 1">
    <g>
      <path class="cls-1" d="m10.22,25.7v-5.43c.31,0,.59,0,.88,0,2.55,0,5.1,0,7.65,0,1.54,0,2.62-1.02,2.6-2.42-.02-1.36-1.08-2.36-2.57-2.36-2.52,0-5.05,0-7.57,0-.29,0-.58,0-1.12,0,.44-1.65.71-3.22,1.27-4.69C13.8,4.31,19.99.09,26.93,0c3.12-.04,6.17.18,9,1.61,5.53,2.79,8.73,7.26,9.54,13.42.02.13,0,.26,0,.46-.76,0-1.49,0-2.23,0-2.1,0-4.2-.01-6.3,0-1.43,0-2.48,1.02-2.51,2.35-.02,1.36,1.05,2.42,2.51,2.43,2.84.01,5.68,0,8.59,0v5.43c-.26,0-.54,0-.83,0-3.37,0-6.75,0-10.12,0-1.61,0-2.7.98-2.7,2.4,0,1.42,1.09,2.38,2.71,2.38,3.35,0,6.7,0,10.04,0,.29,0,.57,0,.91,0v5.43c-1.06,0-2.09,0-3.12,0-1.81,0-3.61,0-5.42,0-1.49,0-2.56,1-2.57,2.36-.01,1.39,1.07,2.41,2.6,2.42,2.79,0,5.57,0,8.52,0-.16.91-.26,1.76-.46,2.6-1.77,7.33-8.44,12.59-16,12.73-3.56.07-7.01-.26-10.16-2.07-4.98-2.86-7.9-7.12-8.62-12.85-.01-.1,0-.21,0-.42.29,0,.57,0,.85,0,2.52,0,5.05,0,7.57,0,1.54,0,2.62-1,2.62-2.4,0-1.39-1.08-2.37-2.64-2.38-2.52,0-5.05,0-7.57,0-.29,0-.57,0-.9,0v-5.43c.26,0,.54,0,.82,0,3.32,0,6.64,0,9.96,0,1.77,0,2.87-.9,2.89-2.37.01-1.49-1.1-2.41-2.92-2.41-3.56,0-7.12,0-10.76,0Z"/>
      <path class="cls-1" d="m30.31,66.14v10.77c.31,0,.59,0,.87,0,3.96,0,7.92,0,11.88,0,1.83,0,3.01,1.64,2.36,3.25-.4.98-1.17,1.49-2.22,1.52-.85.03-1.7,0-2.55,0-9.27,0-18.55,0-27.82,0-1.92,0-3.16-1.68-2.43-3.32.46-1.03,1.31-1.47,2.43-1.47,3.91.01,7.81,0,11.72,0h.91v-10.69c-1.56-.31-3.15-.5-4.66-.95C9.69,61.96,2.88,54.63.47,43.29c-.32-1.52-.38-3.11-.46-4.67-.08-1.6.95-2.71,2.37-2.71,1.39,0,2.35,1.06,2.4,2.62.28,8.38,3.91,14.92,10.96,19.41,13.82,8.79,32.55.18,34.97-16.01.17-1.15.24-2.32.3-3.49.07-1.49,1.05-2.54,2.42-2.53,1.37,0,2.37,1.09,2.38,2.56.07,13.55-10.44,25.64-23.85,27.44-.52.07-1.04.14-1.64.23Z"/>
    </g>
  </g>
</svg>