<?xml version="1.0" encoding="UTF-8"?>
<svg id="Capa_2" data-name="Capa 2" xmlns="http://www.w3.org/2000/svg" viewBox="0 0 73.05 73.04">
  <defs>
    <style>
      .cls-1 {
        fill: #fff;
      }
    </style>
  </defs>
  <g id="Layer_1" data-name="Layer 1">
    <g id="p1J2ye.tif">
      <g>
        <path class="cls-1" d="m73.04,49.27v.74c0,6.82,0,13.64,0,20.46,0,1.76-.81,2.56-2.57,2.56-22.63,0-45.26,0-67.89,0-1.78,0-2.58-.8-2.58-2.55,0-6.82,0-13.64,0-20.46,0-.24,0-.47,0-.76h73.04Z"/>
        <path class="cls-1" d="m25.32,36.39c-.57,0-.99,0-1.41,0-1.38.01-2.35.88-2.36,2.13,0,1.24.97,2.14,2.34,2.15,4.44,0,8.89,0,13.33,0,3.99,0,7.99,0,11.98,0,1.67,0,2.75-1.5,2.13-2.95-.36-.84-1.03-1.28-1.95-1.32-.5-.02-.99,0-1.6,0,.17-.21.26-.36.38-.48,3.28-3.28,6.55-6.56,9.84-9.82.23-.23.65-.39.98-.39,3.87-.03,7.75-.02,11.62-.02,1.58,0,2.44.84,2.44,2.41,0,5.39,0,10.79,0,16.18,0,.19,0,.38,0,.61H0v-.74c0-5.32,0-10.65,0-15.97,0-1.67.83-2.5,2.49-2.5,3.85,0,7.7,0,11.55.01.32,0,.72.11.94.33,3.36,3.32,6.7,6.67,10.05,10.02.07.07.12.14.29.34Z"/>
        <path class="cls-1" d="m36.49,36.39c-1.5,0-3,.02-4.49-.02-.32,0-.71-.14-.93-.36-4.72-4.69-9.43-9.39-14.13-14.1-.99-.99-.99-2.22,0-3.22C22.94,12.7,28.92,6.72,34.91.75c.99-.99,2.23-1,3.22,0,5.99,5.97,11.97,11.95,17.95,17.94,1.02,1.02,1,2.25-.02,3.28-4.68,4.69-9.37,9.38-14.08,14.05-.22.22-.61.36-.92.36-1.52.04-3.04.02-4.56.02Z"/>
      </g>
    </g>
  </g>
</svg>