<?xml version="1.0" encoding="UTF-8"?>
<svg id="Capa_2" data-name="Capa 2" xmlns="http://www.w3.org/2000/svg" viewBox="0 0 62.34 81.86">
  <defs>
    <style>
      .cls-1 {
        fill: #fff;
      }
    </style>
  </defs>
  <g id="Layer_1" data-name="Layer 1">
    <g>
      <path class="cls-1" d="m31.17,24.15c4.66,0,9.33,0,13.99.02.35,0,.82.14,1.02.39,3.37,4.12,6.83,8.19,10.03,12.44,4.53,6.01,6.49,12.85,6.06,20.38-.27,4.68-1.63,8.98-4.32,12.84-2.35,3.37-5.43,5.92-9.06,7.77-6.19,3.16-12.83,4.08-19.69,3.83-4.53-.17-8.95-.94-13.16-2.66-7.12-2.91-12.29-7.78-14.73-15.19-1.7-5.16-1.66-10.42-.45-15.69,1.25-5.44,3.92-10.13,7.53-14.34,2.58-3.01,5.08-6.11,7.59-9.18.35-.43.7-.62,1.27-.61,4.64.02,9.27.01,13.91.01Zm2.42,13.66c0-.48.01-.96,0-1.44-.04-1.43-1.07-2.47-2.41-2.46-1.34.01-2.34,1.05-2.37,2.49-.02.88-.04,1.76,0,2.64.04.59-.17.87-.71,1.13-2.52,1.24-3.97,3.29-4.08,6.11-.11,2.87,1.15,5.06,3.63,6.56,1.23.75,2.61.83,3.98,1.04,1.19.18,2.03,1.3,1.94,2.47-.09,1.21-1.03,2.15-2.22,2.22-1.25.08-2.32-.75-2.53-1.96-.05-.29-.04-.59-.11-.87-.27-1.25-1.34-2.03-2.57-1.91-1.27.13-2.17,1.13-2.14,2.44.04,2.4.98,4.47,3.02,5.67,1.4.82,1.96,1.65,1.83,3.25-.11,1.31,1.08,2.3,2.37,2.29,1.28-.01,2.3-1,2.37-2.33.02-.45.05-.91,0-1.36-.06-.61.15-.91.73-1.2,2.56-1.27,3.97-3.4,4.02-6.24.05-2.78-1.21-4.95-3.64-6.4-1.21-.72-2.56-.84-3.9-1.01-1.17-.15-2-1.15-2-2.33,0-1.18.82-2.16,1.98-2.35,1.52-.26,2.65.74,2.83,2.49.14,1.41,1.22,2.32,2.61,2.21,1.27-.1,2.23-1.2,2.16-2.52-.13-2.47-1.12-4.58-3.31-5.77-1.31-.72-1.72-1.53-1.46-2.87Z"/>
      <path class="cls-1" d="m43.34,19.16h-24.22c-.27-1.8-.48-3.6-.81-5.37-.64-3.39-1.79-6.62-3.34-9.7-.21-.43-.43-.87-.52-1.33-.32-1.64,1.34-3.11,2.95-2.63.56.17,1.08.44,1.6.7,2.1,1.04,4.2,2.08,6.28,3.15.49.25.79.2,1.16-.2.87-.93,1.8-1.82,2.71-2.72,1.42-1.41,2.67-1.42,4.07-.03.93.92,1.86,1.83,2.76,2.78.35.37.63.42,1.1.18,2.39-1.23,4.79-2.43,7.21-3.62,1.62-.79,3.25-.14,3.58,1.48.12.57,0,1.3-.27,1.83-2.11,4.15-3.46,8.52-4.02,13.14-.09.76-.16,1.53-.24,2.33Z"/>
      <path class="cls-1" d="m4.8,26.57c-.01,1.3-1.1,2.38-2.39,2.37-1.34,0-2.42-1.12-2.39-2.45.03-1.3,1.13-2.36,2.43-2.33,1.31.03,2.37,1.11,2.35,2.41Z"/>
    </g>
  </g>
</svg>