<?xml version="1.0" encoding="UTF-8"?>
<svg id="Capa_2" data-name="Capa 2" xmlns="http://www.w3.org/2000/svg" viewBox="0 0 65 85.27">
  <defs>
    <style>
      .cls-1 {
        fill: #4b4b4b;
      }
    </style>
  </defs>
  <g id="Layer_1" data-name="Layer 1">
    <g id="_2VUTFn.tif" data-name="2VUTFn.tif">
      <g>
        <path class="cls-1" d="m33.68,72.74h-8.63c-.01-.3-.04-.56-.04-.83,0-5.78,0-11.55-.01-17.33,0-.54.15-.93.54-1.31,1.79-1.75,3.56-3.51,5.3-5.3,1.46-1.51.87-3.77-1.08-4.27-.98-.25-1.8.09-2.49.78-1.37,1.37-2.75,2.75-4.12,4.12-.19.19-.4.37-.69.65-.44-.47-.85-.92-1.27-1.35-1.15-1.16-2.3-2.33-3.48-3.47-1.11-1.08-2.65-1.09-3.64-.05-.97,1.01-.94,2.51.12,3.58,1.6,1.62,3.18,3.26,4.84,4.82.74.7,1.04,1.41,1.03,2.45-.06,5.5-.03,11-.03,16.49,0,.3,0,.61,0,.98h-8.68c-.13-.97-.2-1.96-.4-2.93-.63-3.02-2.14-5.57-4.3-7.75-3.42-3.46-5.52-7.58-6.34-12.38-1.53-8.92,3.02-18.53,10.94-22.99.52-.3.82-.07,1.19.16,9.96,6.25,19.92,12.51,29.88,18.76.73.46,1.49.88,2.17,1.39.24.18.46.62.43.92-.44,5.47-2.6,10.16-6.45,14.06-2.81,2.86-4.5,6.22-4.68,10.28,0,.16-.05.32-.09.51Z"/>
        <path class="cls-1" d="m59.98,29.49c-3.1-.63-6.14-1.25-9.17-1.87-4.8-.99-9.61-1.95-14.41-2.99-.63-.14-1.31-.53-1.74-1.01-5.72-6.39-11.4-12.81-17.09-19.23-.98-1.11-1.14-2.13-.52-3.18.61-1.04,1.58-1.4,3.03-1.1,8.28,1.68,16.56,3.38,24.85,5.05.97.2,1.72.65,2.38,1.39,5.56,6.31,11.14,12.6,16.73,18.88.64.72.96,1.5.95,2.48-.02,6.44,0,12.88-.02,19.32,0,2-1.79,3.28-3.49,2.5-1.07-.49-1.51-1.38-1.51-2.55.01-5.58,0-11.16,0-16.74v-.94Z"/>
        <path class="cls-1" d="m15.93,23.13c1.53-2.65,3.01-5.22,4.69-8.13.17.35.24.61.4.79,3.12,3.54,6.29,7.03,9.37,10.61,1.53,1.78,3.35,2.88,5.67,3.31,4.76.9,9.5,1.93,14.25,2.9.11.02.21.06.46.13-1.73,3.01-3.44,5.97-5.18,8.99-9.9-6.21-19.73-12.38-29.65-18.61Z"/>
        <path class="cls-1" d="m11.38,77.81h22.28c.7,4.29-1.95,7.45-6.22,7.45-3.44,0-6.88.02-10.32,0-3.89-.03-6.64-3.63-5.73-7.45Z"/>
      </g>
    </g>
  </g>
</svg>