<?xml version="1.0" encoding="UTF-8"?>
<svg id="Capa_2" data-name="Capa 2" xmlns="http://www.w3.org/2000/svg" viewBox="0 0 71.18 71.01">
  <defs>
    <style>
      .cls-1 {
        fill: #fff;
      }
    </style>
  </defs>
  <g id="Layer_1" data-name="Layer 1">
    <g id="S9Zogn.tif">
      <path class="cls-1" d="m10.44,54.42c1,.54,1.99.96,2.85,1.57,3.07,2.19,4.19,6.19,2.81,9.73-1.34,3.42-4.99,5.65-8.57,5.24-3.79-.43-6.82-3.27-7.41-6.94-.66-4.09,1.64-7.89,5.62-9.26.36-.12.52-.25.52-.66.03-3.36,1.34-6.2,3.6-8.64,2.17-2.34,4.82-4.04,7.56-5.61,3.33-1.91,6.7-3.76,10-5.73,1.64-.97,3.07-2.24,4.24-3.77,1.22-1.6,1.85-3.39,1.85-5.42,0-5.66,0-11.31,0-16.93-2.02,2.02-4.04,4.05-6.02,6.03-1.12-1.12-2.07-2.08-2.99-2.99,3.65-3.65,7.38-7.38,11.04-11.04,3.67,3.67,7.41,7.41,11.11,11.11-.84.84-1.8,1.8-2.75,2.76-1.96-1.97-3.99-4-6.14-6.16-.04.37-.07.53-.07.7,0,5.56,0,11.13,0,16.69,0,2.7,1.21,4.85,3.11,6.67,2.33,2.24,5.16,3.74,7.94,5.32,2.96,1.68,5.95,3.32,8.79,5.17,1.53,1,2.91,2.3,4.17,3.65,2.23,2.4,3.3,5.33,3.25,8.63.51.21,1.02.38,1.5.6,3.57,1.7,5.46,5.66,4.51,9.43-1,3.97-4.48,6.57-8.56,6.4-3.84-.16-7.15-3.16-7.77-7.03-.64-3.99,1.64-7.8,5.5-9.14.56-.19.68-.45.65-.99-.16-2.29-1.09-4.25-2.74-5.76-1.46-1.33-3.07-2.53-4.73-3.62-1.62-1.07-3.36-1.95-5.07-2.88-3.67-2.01-7.36-4.01-10.54-7.05v.87c0,6.14,0,12.29-.01,18.43,0,.56.13.83.71,1.02,3.86,1.32,6.12,5.24,5.42,9.31-.67,3.93-4.24,6.87-8.29,6.84-4.02-.03-7.51-3.03-8.14-7.01-.65-4.05,1.66-7.87,5.59-9.22.38-.13.56-.25.56-.7-.02-6.35-.01-12.7-.01-19.06,0-.11-.01-.22-.02-.33-.07,0-.13-.02-.15,0-3.46,3.28-7.67,5.4-11.79,7.65-2.77,1.51-5.53,3.02-7.86,5.19-1.94,1.8-3.21,3.94-3.25,6.67,0,.11.01.23.01.22Z"/>
    </g>
  </g>
</svg>