<svg width="32" height="25" viewBox="0 0 32 25" fill="none" xmlns="http://www.w3.org/2000/svg">
<path d="M4.25743 11.1546C4.31227 11.0544 4.35514 10.9816 4.39203 10.9059C4.79982 10.0626 5.1109 9.18201 5.38508 8.28957C5.92847 6.52239 6.45391 4.7503 6.98533 2.97918C7.05612 2.74428 7.18374 2.5428 7.32433 2.34328C7.55165 2.01991 8.35726 2.02385 8.57362 2.4681C8.66335 2.65189 8.7471 2.86026 8.75109 3.05978C8.76106 3.50403 8.75109 3.9532 8.69227 4.39254C8.5816 5.20634 8.42905 6.01425 8.29445 6.82413C8.13392 7.78733 7.97639 8.75152 7.81288 9.71472C7.75704 10.045 7.68725 10.3732 7.62543 10.7025C7.61646 10.7497 7.61247 10.7978 7.60051 10.8883C8.12894 10.5806 8.62547 10.2917 9.12199 10.0027C9.13196 10.0076 9.14193 10.0135 9.1519 10.0184C8.91361 10.446 8.67532 10.8735 8.43703 11.303C8.62646 11.3659 8.66634 11.3433 8.75807 11.1861C9.12698 10.556 9.48491 9.91915 9.87476 9.30093C10.4879 8.3279 10.8977 7.27526 11.1669 6.16856C11.3414 5.45009 11.482 4.72278 11.6465 4.00234C11.7273 3.64655 11.831 3.29567 12.0493 2.99295C12.4292 2.46515 13.1002 2.41306 13.5508 2.88286C13.9327 3.27994 14.0763 3.76547 14.0324 4.30506C13.9796 4.96751 13.8071 5.60833 13.6735 6.25702C13.4382 7.40303 13.1361 8.53234 12.7991 9.6528C12.3394 11.1792 11.7372 12.6535 11.1061 14.1169C10.9875 14.3912 10.9496 14.6762 10.9356 14.9651C10.9157 15.378 10.8937 15.7927 10.9107 16.2045C10.9336 16.7608 11.0094 17.3132 11.2756 17.8194C11.5119 18.2685 11.9376 18.5487 12.504 18.4513C12.8729 18.3875 13.2079 18.242 13.5339 18.0661C14.0942 17.7643 14.6476 17.4479 15.2209 17.1717C15.7882 16.8974 16.3934 16.7323 17.0355 16.7775C17.5111 16.811 17.9169 16.9967 18.227 17.3623C18.4124 17.5815 18.4244 17.7299 18.2798 17.9786C18.1422 18.2145 17.9348 18.3835 17.7145 18.5408C16.9607 19.0774 16.201 19.6082 15.516 20.2323C15.0743 20.6353 14.6576 21.0648 14.2139 21.4658C13.5538 22.0634 12.811 22.5538 12.0543 23.0207C11.2208 23.5347 10.3623 24.0104 9.53876 24.5392C9.08809 24.8291 8.59954 24.9235 8.09205 24.9589C7.58755 24.9942 7.07806 25.0149 6.57455 24.9844C5.70414 24.9304 4.83771 24.8281 4.03409 24.4537C3.42889 24.1716 2.93834 23.7686 2.71999 23.1189C2.65917 22.9401 2.62926 22.7435 2.62527 22.5548C2.6163 22.1784 2.64521 21.8019 2.64123 21.4255C2.63126 20.5252 2.62428 19.6239 2.59237 18.7236C2.55648 17.7093 2.49566 16.696 2.44481 15.6826C2.40493 14.8698 2.23344 14.0786 2.03602 13.2923C1.5056 11.1782 0.870482 9.09257 0.24434 7.00399C0.135662 6.64132 0.0838164 6.26193 0.0140235 5.88943C-0.0198759 5.70858 0.00704422 5.53265 0.101763 5.36753C0.27126 5.07366 0.540461 4.9508 0.868488 5.05007C1.30419 5.18079 1.61527 5.4786 1.88248 5.82751C2.11479 6.12925 2.22945 6.48603 2.37701 6.82806C2.89647 8.03108 3.42091 9.23312 3.94236 10.4361C4.0301 10.6386 4.11086 10.845 4.19661 11.0485C4.20758 11.076 4.22552 11.1005 4.25743 11.1556V11.1546Z" fill="white"/>
<path d="M22.7294 10.503C22.552 10.3438 22.3645 10.2759 22.1541 10.3094C21.205 10.4627 20.2578 10.6268 19.3086 10.7792C18.832 10.8558 18.3514 10.8902 17.8729 10.788C17.5468 10.7192 17.2477 10.5924 17.0124 10.3506C16.7651 10.0961 16.7462 9.79336 16.8619 9.48179C16.9695 9.19283 17.2088 9.04835 17.5099 9.01395C17.9347 8.96579 18.3614 8.93827 18.7861 8.89109C19.2887 8.83507 19.7902 8.76725 20.2927 8.70632C20.9308 8.62769 21.5689 8.54808 22.207 8.47338C22.553 8.43308 22.8999 8.40261 23.2459 8.36526C23.6068 8.32693 23.9369 8.3918 24.228 8.62179C24.3795 8.7417 24.5441 8.84687 24.7056 8.95498C24.7704 8.99823 24.8412 9.03361 24.914 9.06408C25.0835 9.13583 25.1233 9.1142 25.1582 8.93729C25.2789 8.32398 25.4155 7.71265 25.5132 7.09541C25.5999 6.54698 25.6468 5.99166 25.7046 5.43929C25.8233 4.30016 25.7594 3.15709 25.7834 2.01501C25.7963 1.39679 25.9848 0.83165 26.4324 0.372655C26.6109 0.18886 26.8113 0.04438 27.0775 0.00604851C27.3168 -0.0293344 27.589 0.093523 27.7206 0.295992C27.8881 0.553501 27.94 0.83853 27.9559 1.13634C28.0018 1.98651 28.0506 2.8357 28.0965 3.68587C28.1354 4.40041 28.1693 5.11593 28.2082 5.83145C28.2451 6.51356 28.2879 7.19566 28.3268 7.87777C28.3557 8.39672 28.3787 8.91567 28.4076 9.43462C28.4455 10.1167 28.4844 10.7988 28.5282 11.4809C28.5392 11.651 28.5213 11.7797 28.3647 11.9045C28.0746 12.1355 27.8473 12.4284 27.7446 12.7911C27.7027 12.9375 27.6967 13.0958 27.6867 13.2501C27.6807 13.3375 27.7276 13.4083 27.8213 13.4329C27.923 13.4604 27.9799 13.424 27.9739 13.3208C27.946 12.8088 28.1843 12.4107 28.5362 12.0716C28.9011 11.7198 29.3209 11.4406 29.8134 11.2863C30.1085 11.1939 30.4007 11.19 30.6808 11.3433C31.0119 11.5242 31.1086 11.9232 30.8693 12.2122C30.1464 13.082 29.7905 14.0993 29.627 15.1922C29.5622 15.6247 29.5392 16.063 29.4734 16.4955C29.3827 17.0999 29.1304 17.6415 28.7157 18.0946C28.5552 18.2705 28.3308 18.3904 28.1354 18.5349C27.7446 18.8258 27.3647 19.1335 26.9599 19.4028C26.4015 19.7743 25.7923 20.0328 25.1124 20.1163C24.5859 20.1812 24.0784 20.1075 23.5749 19.9718C22.9847 19.8126 22.4941 19.4834 22.0425 19.0873C20.8012 17.9992 20.0723 16.6321 19.7433 15.0399C19.6306 14.4924 19.5419 13.94 19.5549 13.3847C19.5728 12.6476 19.4472 11.936 19.2677 11.2283C19.2278 11.0721 19.2308 11.073 19.3963 11.0475C20.2159 10.9227 21.0355 10.7969 21.854 10.6691C22.1163 10.6278 22.3765 10.5796 22.6377 10.5335C22.6616 10.5295 22.6836 10.5177 22.7314 10.502L22.7294 10.503Z" fill="white"/>
<path d="M22.7197 8.09891C22.5073 8.12938 22.3159 8.15788 22.1245 8.18343C21.5741 8.25617 21.0237 8.32693 20.4734 8.39966C20.26 8.42817 20.258 8.4262 20.1992 8.22668C19.8562 7.05806 19.5082 5.89141 19.1702 4.72082C18.9977 4.12324 18.8472 3.51977 18.7874 2.8986C18.7515 2.51824 18.7475 2.13983 18.924 1.78109C19.1353 1.34863 19.6119 1.16287 20.0397 1.3732C20.1593 1.43218 20.263 1.54226 20.3447 1.65037C20.5412 1.90985 20.604 2.21945 20.6508 2.53396C20.7765 3.37725 20.9968 4.19696 21.286 4.99897C21.6588 6.03785 22.1464 7.02563 22.6728 7.99571C22.6858 8.02028 22.6968 8.04583 22.7217 8.09792L22.7197 8.09891Z" fill="white"/>
<path d="M20.0685 8.44783C19.8612 8.47535 19.6787 8.49992 19.4952 8.52351C19.1792 8.56479 18.8621 8.6041 18.5461 8.64636C18.4723 8.65619 18.4274 8.64636 18.3955 8.56479C18.1253 7.87973 17.8561 7.19468 17.573 6.51553C17.3805 6.05456 17.1751 5.59852 17.0694 5.10807C17.0007 4.78569 16.9628 4.46233 17.0535 4.13701C17.1193 3.89916 17.2499 3.70553 17.4633 3.57186C17.563 3.50896 17.6677 3.47554 17.7933 3.49913C17.9458 3.52665 18.0465 3.59643 18.1034 3.74288C18.2819 4.19598 18.4633 4.64809 18.6527 5.09628C19.0356 6.00051 19.4255 6.90277 19.8103 7.80602C19.8981 8.01144 19.9778 8.22079 20.0695 8.44783H20.0685Z" fill="white"/>
<path d="M12.4102 11.7266C12.4241 11.6637 12.4301 11.6254 12.4421 11.589C12.6465 10.963 12.8548 10.3388 13.0542 9.71178C13.0941 9.58499 13.15 9.53388 13.2925 9.5211C13.7342 9.48277 14.1739 9.42282 14.6146 9.37171C14.6844 9.36385 14.7552 9.35893 14.826 9.35795C15.2098 9.35107 15.3734 9.47589 15.4681 9.84643C15.6206 10.445 15.3764 10.9197 14.7711 11.1065C14.1669 11.2932 13.5498 11.4377 12.9376 11.5989C12.7711 11.6431 12.6036 11.6795 12.4112 11.7257L12.4102 11.7266Z" fill="white"/>
</svg>
