<?xml version="1.0" encoding="UTF-8"?>
<svg id="Capa_2" data-name="Capa 2" xmlns="http://www.w3.org/2000/svg" viewBox="0 0 89.44 68.29">
  <defs>
    <style>
      .cls-1 {
        fill: #fff;
      }
    </style>
  </defs>
  <g id="Layer_1" data-name="Layer 1">
    <g id="aqBHLF.tif">
      <g>
        <path class="cls-1" d="m47.19,64.78v-1.12c0-15.69.05-31.37-.05-47.06-.01-2.35.78-4.13,2.18-5.85,4.41-5.43,10.25-8.42,16.97-9.73,3.01-.59,6.11-.76,9.18-1,2.06-.16,3.49,1.27,3.49,3.37,0,15.86,0,31.72,0,47.58,0,2.11-1.33,3.4-3.56,3.43-4.32.06-8.58.57-12.76,1.72-5.65,1.56-10.7,4.18-14.9,8.34-.08.08-.17.16-.26.24-.04.03-.1.04-.28.1Z"/>
        <path class="cls-1" d="m42.19,64.87c-.69-.64-1.27-1.2-1.88-1.73-5.22-4.51-11.35-6.99-18.1-8-2.72-.41-5.49-.55-8.24-.73-2.22-.15-3.48-1.38-3.48-3.62,0-15.74,0-31.49,0-47.23,0-2.35,1.41-3.63,3.76-3.56,4.5.13,8.92.69,13.2,2.15,5.82,1.99,10.65,5.31,14.02,10.53.43.67.75,1.56.76,2.35.04,16.47.03,32.94.03,49.42,0,.08-.02.17-.06.42Z"/>
        <path class="cls-1" d="m83.91,11.11c1.04,0,1.97-.08,2.89.02,1.37.15,2.46,1.37,2.62,2.77.03.23.03.46.03.7,0,16.71,0,33.42,0,50.12,0,2.09-1.27,3.56-3.13,3.56-.69,0-1.38-.17-2.06-.32-7.67-1.65-15.41-2.38-23.24-1.81-3.03.22-6.04.77-9.36,1.21,1.69-1.19,3.16-2.37,4.77-3.31,4.94-2.91,10.38-4.13,16.04-4.59,2.02-.16,4.12-.13,6.03-.71,3.13-.95,4.85-3.35,5.34-6.59.09-.63.08-1.28.08-1.92,0-12.66,0-25.32,0-37.99v-1.15Z"/>
        <path class="cls-1" d="m37.48,67.42c-2.1-.33-4.21-.72-6.33-.99-4.52-.56-9.06-.57-13.6-.23-4.5.33-8.95,1.03-13.36,1.98C1.71,68.71,0,67.28,0,64.75,0,48.04,0,31.34,0,14.63c0-2.29,1.27-3.54,3.58-3.55.61,0,1.22,0,1.95,0,0,.43,0,.8,0,1.17,0,12.78.01,25.56,0,38.33,0,2.89.94,5.29,3.26,7.08,1.51,1.17,3.24,1.64,5.13,1.68,3.65.07,7.26.45,10.8,1.37,4.51,1.17,8.66,3.03,12.21,6.1.18.15.34.31.51.48.04.04.04.1.05.13Z"/>
      </g>
    </g>
  </g>
</svg>