<?xml version="1.0" encoding="UTF-8"?>
<svg id="Capa_2" data-name="Capa 2" xmlns="http://www.w3.org/2000/svg" viewBox="0 0 87.12 87.15">
  <defs>
    <style>
      .cls-1 {
        fill: #fff;
      }
    </style>
  </defs>
  <g id="Layer_1" data-name="Layer 1">
    <g id="rzznZo.tif">
      <g>
        <path class="cls-1" d="m55.26,52.41c-5.89,0-11.67,0-17.46,0-1.84,0-3.69-.03-5.53-.01-.56,0-.84-.14-1.01-.73-.65-2.26-2.1-3.95-3.9-5.43-4.61-3.77-7.58-8.6-8.9-14.41C15.06,16.9,25.15,2.29,40.27.23c13.17-1.79,25.51,6.9,28.28,20.11,2.23,10.65-.9,19.53-9.42,26.4-1.87,1.51-3.2,3.34-3.87,5.66Zm-11.69-41.19c-1.13,0-1.89.55-2.37,1.53-.91,1.86-1.83,3.71-2.71,5.57-.23.48-.48.73-1.05.8-1.97.24-3.92.56-5.89.84-1.12.16-2.02.64-2.39,1.76-.37,1.14,0,2.09.86,2.91,1.39,1.33,2.73,2.72,4.14,4.04.52.49.65.96.52,1.64-.37,1.95-.67,3.91-1.01,5.86-.19,1.1.07,2.04.99,2.7.96.69,1.95.6,2.96.05,1.77-.96,3.56-1.87,5.32-2.84.45-.25.78-.26,1.24,0,1.83,1.01,3.68,2,5.55,2.95,1.44.74,3.12.16,3.57-1.29.2-.64.15-1.4.05-2.08-.26-1.82-.59-3.63-.93-5.44-.11-.61,0-1.04.47-1.49,1.45-1.35,2.83-2.78,4.26-4.16.83-.81,1.16-1.75.79-2.85-.36-1.08-1.22-1.58-2.31-1.74-1.99-.29-3.98-.61-5.97-.86-.52-.07-.79-.27-1.01-.73-.89-1.89-1.82-3.77-2.74-5.65-.48-.98-1.25-1.51-2.34-1.52Z"/>
        <path class="cls-1" d="m53.57,63.88h-20.52v-5.54h20.52v5.54Z"/>
        <path class="cls-1" d="m53.09,69.08c-.94,4.23-5.43,7.45-10.03,7.31-4.58-.14-8.97-3.48-9.56-7.31h19.59Z"/>
        <path class="cls-1" d="m5.71,8.96c.45.16.92.26,1.34.48,1.22.66,2.42,1.35,3.62,2.05,1.36.8,1.81,2.29,1.08,3.56-.72,1.26-2.24,1.63-3.61.87-1.26-.7-2.53-1.4-3.76-2.14-1.05-.64-1.46-1.8-1.13-2.95.3-1.03,1.34-1.78,2.46-1.87Z"/>
        <path class="cls-1" d="m83.04,11.71c-.06.86-.55,1.69-1.57,2.09-1.45.57-2.91,1.1-4.39,1.58-1.34.43-2.62-.23-3.1-1.49-.5-1.31.02-2.7,1.35-3.24,1.49-.61,3.01-1.16,4.55-1.63,1.61-.49,3.18.8,3.16,2.7Z"/>
        <path class="cls-1" d="m73.82,46.2c0-1.87,1.87-3.14,3.56-2.32,1.47.71,2.89,1.55,4.28,2.43,1.11.7,1.39,2.17.76,3.31-.63,1.13-2.04,1.67-3.22,1.08-1.49-.75-2.93-1.6-4.35-2.47-.71-.44-1.05-1.17-1.03-2.03Z"/>
        <path class="cls-1" d="m4.68,27.4c.74,0,1.47-.01,2.21,0,1.48.02,2.57,1.05,2.63,2.45.05,1.32-.97,2.55-2.37,2.62-1.58.09-3.17.09-4.75,0C.9,32.39-.06,31.24,0,29.81c.06-1.42,1.12-2.39,2.64-2.41.68-.01,1.36,0,2.04,0Z"/>
        <path class="cls-1" d="m5.39,50.91c-1.18,0-2.24-.81-2.5-1.92-.28-1.19.26-2.45,1.37-2.9,1.54-.62,3.11-1.19,4.7-1.68,1.13-.35,2.31.27,2.84,1.32.52,1.04.36,2.52-.66,3.04-1.82.92-3.78,1.58-5.68,2.34-.03-.07-.05-.14-.08-.2Z"/>
        <path class="cls-1" d="m82.42,27.41c.76,0,1.53-.03,2.29,0,1.32.06,2.29,1.01,2.4,2.3.11,1.29-.67,2.55-1.96,2.65-1.85.15-3.73.15-5.57,0-1.28-.11-2.08-1.4-1.95-2.66.14-1.31,1.1-2.23,2.42-2.29.79-.03,1.58,0,2.38,0Z"/>
        <path class="cls-1" d="m40.86,81.42h5.11c-.06,1.27,0,2.59-.2,3.88-.18,1.17-1.3,1.9-2.5,1.85-1.2-.05-2.27-.86-2.38-2.03-.11-1.23-.03-2.47-.03-3.7Z"/>
        <path class="cls-1" d="m37.09,24.11c.78.8,1.45,1.48,2.13,2.16.73.73,1.04,1.58.82,2.62-.19.93-.31,1.89-.48,2.98.91-.48,1.69-.86,2.44-1.3,1.06-.62,2.08-.61,3.13,0,.75.43,1.53.81,2.44,1.29-.16-.95-.24-1.74-.43-2.5-.35-1.42.04-2.54,1.15-3.48.61-.51,1.14-1.12,1.81-1.78-1.07-.16-1.94-.32-2.8-.41-1.14-.12-1.96-.65-2.44-1.71-.38-.84-.81-1.65-1.3-2.63-.46.94-.86,1.71-1.21,2.5-.49,1.11-1.31,1.72-2.53,1.85-.86.09-1.72.25-2.72.41Z"/>
        <path class="cls-1" d="m37.09,24.11c1-.15,1.86-.32,2.72-.41,1.22-.12,2.04-.73,2.53-1.85.35-.79.75-1.56,1.21-2.5.49.98.92,1.8,1.3,2.63.48,1.06,1.3,1.59,2.44,1.71.87.09,1.73.25,2.8.41-.67.66-1.2,1.27-1.81,1.78-1.11.94-1.5,2.06-1.15,3.48.19.76.27,1.55.43,2.5-.91-.48-1.69-.86-2.44-1.29-1.05-.6-2.08-.62-3.13,0-.75.44-1.53.82-2.44,1.3.17-1.1.29-2.05.48-2.98.22-1.05-.09-1.89-.82-2.62-.68-.68-1.35-1.37-2.13-2.16Z"/>
      </g>
    </g>
  </g>
</svg>