<?xml version="1.0" encoding="UTF-8"?>
<svg id="Capa_2" data-name="Capa 2" xmlns="http://www.w3.org/2000/svg" viewBox="0 0 76.26 64.61">
  <defs>
    <style>
      .cls-1 {
        fill: #fff;
      }
    </style>
  </defs>
  <g id="Layer_1" data-name="Layer 1">
    <g id="_4B5rtg.tif" data-name="4B5rtg.tif">
      <g>
        <path class="cls-1" d="m38.13,64.6c-5.03,0-10.07,0-15.1,0-1.83,0-2.63-.79-2.63-2.61,0-7.21-.01-14.43,0-21.64.01-5.41,3.4-9.69,8.62-10.92.76-.18,1.57-.25,2.36-.26,4.49-.02,8.98-.04,13.46,0,5.3.05,9.58,3.5,10.74,8.66.19.86.25,1.77.25,2.65.02,7.16.01,14.33.01,21.49,0,1.83-.79,2.63-2.61,2.63-5.03,0-10.07,0-15.1,0Z"/>
        <path class="cls-1" d="m38.18,0c7.24.04,13.18,5.97,13.18,13.15,0,7.29-5.92,13.24-13.22,13.29-7.25.05-13.29-6.03-13.25-13.32C24.93,5.88,30.92-.04,38.18,0Z"/>
        <path class="cls-1" d="m16.9,34.86c-.14.47-.29.81-.34,1.17-.21,1.54-.55,3.09-.56,4.63-.06,6.32-.04,12.65-.02,18.97,0,1.63.1,3.25.16,4.97.1-.07.06-.02.03-.02-3.27,0-6.55.08-9.82-.02-3.63-.12-6.28-2.97-6.32-6.67-.04-4.02-.04-8.03,0-12.05.07-6.12,4.74-10.78,11-10.97,1.91-.06,3.81,0,5.86,0Z"/>
        <path class="cls-1" d="m60.11,64.56c.06-1.68.15-3.31.16-4.93.02-6.07,0-12.15.01-18.22,0-2.09-.14-4.16-.83-6.16-.03-.09-.02-.19-.04-.34.24-.02.46-.05.67-.05,2.01.02,4.02-.06,6.02.08,5.63.41,10.01,5.03,10.11,10.67.07,4.11.06,8.23,0,12.35-.04,3.55-2.57,6.4-6.02,6.56-3.39.16-6.79.04-10.09.04Z"/>
        <path class="cls-1" d="m14.9,32.1c-5.44,0-9.88-4.44-9.9-9.89-.01-5.43,4.43-9.87,9.89-9.88,5.46,0,9.91,4.43,9.89,9.86-.03,5.45-4.47,9.9-9.88,9.9Z"/>
        <path class="cls-1" d="m71.25,22.31c-.14,5.52-4.63,9.92-9.99,9.79-5.53-.14-9.9-4.64-9.78-10.07.13-5.52,4.63-9.83,10.13-9.69,5.4.14,9.78,4.67,9.64,9.97Z"/>
      </g>
    </g>
  </g>
</svg>